#!OML:ASF G:\JayActor3\Patient Classification 1\Patient 1\Session 6\male.ASF
:FULLY-SPECIFIED
:DEGREES
431
root 38.1775 16.7612 0.844047 198.774 -33.0238 -180.286
lowerback 14.2707 -1.26273 -1.59179
upperback 10.6092 -3.15759 -3.25548
thorax 3.12197 -2.09685 -2.19132
lowerneck 2.50152 3.18259 2.00303
upperneck 1.47979 4.24605 -0.482895
head 0.0945337 2.1129 -0.495848
rclavicle 5.80451e-014 -3.02153e-014
rhumerus -37.6818 -0.153485 -82.4627
rradius 43.0088
rwrist -9.67331
rhand -24.3716 -11.6804
rfingers 7.12502
rthumb 2.11846 -41.6496
lclavicle 5.80451e-014 -3.02153e-014
lhumerus 5.56876 -13.1173 45.8865
lradius 81.5575
lwrist 33.8254
lhand -26.4627 11.5966
lfingers 7.12502
lthumb 0.0989015 41.5763
rfemur -58.4399 -7.11374 16.9548
rtibia 54.1319
rfoot -21.2988 -10.3964
rtoes -15.9882
lfemur -12.0949 11.085 -17.2461
ltibia 15.6225
lfoot -4.66091 -6.04227
ltoes -17.6908
432
root 38.1294 16.7528 0.66471 198.605 -33.0906 -180.639
lowerback 14.168 -1.38156 -1.78208
upperback 10.5285 -3.31629 -3.25642
thorax 3.09444 -2.18042 -2.06847
lowerneck 2.10533 3.23998 1.93134
upperneck 2.04733 4.30752 -0.550387
head 0.331631 2.14368 -0.491721
rclavicle -6.67916e-014 -8.0309e-014
rhumerus -38.372 -0.368353 -82.0759
rradius 42.2983
rwrist -9.60442
rhand -23.9659 -11.5413
rfingers 7.12502
rthumb 2.5103 -41.5063
lclavicle -6.67916e-014 -8.0309e-014
lhumerus 6.25558 -13.5925 45.4825
lradius 82.3329
lwrist 34.6729
lhand -26.8859 11.2506
lfingers 7.12502
lthumb -0.309865 41.2301
rfemur -57.1189 -6.17462 15.4908
rtibia 50.4109
rfoot -21.7728 -11.1101
rtoes -15.523
lfemur -10.1546 11.063 -17.1417
ltibia 13.9876
lfoot -4.02147 -6.02994
ltoes -17.9731
433
root 38.0803 16.7408 0.482336 198.461 -33.1674 -181.023
lowerback 14.0262 -1.50034 -1.97539
upperback 10.4415 -3.47175 -3.27049
thorax 3.08171 -2.26114 -1.96018
lowerneck 1.67731 3.28198 1.87398
upperneck 2.62734 4.34961 -0.618798
head 0.579161 2.16382 -0.490382
rclavicle -1.82882e-014 1.11319e-014
rhumerus -39.0297 -0.610256 -81.6944
rradius 41.5078
rwrist -9.42639
rhand -23.596 -11.3989
rfingers 7.12502
rthumb 2.86753 -41.3594
lclavicle -1.82882e-014 1.11319e-014
lhumerus 6.90327 -14.1005 45.0865
lradius 83.0799
lwrist 35.449
lhand -27.2103 10.9994
lfingers 7.12502
lthumb -0.62318 40.9782
rfemur -55.723 -5.09426 13.8977
rtibia 46.7139
rfoot -22.3212 -11.9157
rtoes -15.0802
lfemur -8.06603 11.089 -17.0514
ltibia 12.0755
lfoot -3.24389 -6.07569
ltoes -18.2323
434
root 38.0303 16.7252 0.297093 198.332 -33.2549 -181.427
lowerback 13.8543 -1.62014 -2.16515
upperback 10.3475 -3.62501 -3.29534
thorax 3.07785 -2.33934 -1.86721
lowerneck 1.21828 3.30913 1.8416
upperneck 3.22288 4.37342 -0.705176
head 0.839984 2.1739 -0.498543
rclavicle 9.54166e-015 -7.15625e-014
rhumerus -39.6653 -0.826448 -81.3583
rradius 40.6443
rwrist -9.00921
rhand -23.4267 -11.4033
rfingers 7.12502
rthumb 3.03101 -41.3615
lclavicle 9.54166e-015 -7.15625e-014
lhumerus 7.49686 -14.6182 44.7291
lradius 83.7814
lwrist 36.0692
lhand -27.3527 10.824
lfingers 7.12502
lthumb -0.760759 40.8024
rfemur -54.2761 -3.84086 12.172
rtibia 43.1122
rfoot -22.9434 -12.8049
rtoes -14.585
lfemur -5.7451 10.7418 -16.9179
ltibia 9.75616
lfoot -2.34867 -5.75561
ltoes -18.4683
435
root 37.98 16.7057 0.108968 198.215 -33.3533 -181.841
lowerback 13.6576 -1.74272 -2.35022
upperback 10.2398 -3.77755 -3.32751
thorax 3.07305 -2.41538 -1.78589
lowerneck 0.734494 3.325 1.83641
upperneck 3.83899 4.38381 -0.819144
head 1.11593 2.17613 -0.519533
rclavicle -3.26007e-014 -2.8625e-014
rhumerus -40.281 -1.02398 -81.0623
rradius 39.7088
rwrist -8.37915
rhand -23.4343 -11.5277
rfingers 7.12502
rthumb 3.02368 -41.486
lclavicle -3.26007e-014 -2.8625e-014
lhumerus 8.01068 -15.1095 44.4303
lradius 84.4151
lwrist 36.4066
lhand -27.1266 10.6972
lfingers 7.12502
lthumb -0.542328 40.6763
rfemur -52.8168 -2.40013 10.3284
rtibia 39.6851
rfoot -23.623 -13.7853
rtoes -14.0482
lfemur -3.02073 10.3648 -16.8042
ltibia 6.68185
lfoot -1.11689 -5.36617
ltoes -18.6854
436
root 37.9291 16.6814 -0.0825272 198.086 -33.453 -182.251
lowerback 13.4494 -1.8658 -2.52378
upperback 10.1178 -3.9267 -3.3654
thorax 3.05904 -2.48778 -1.71787
lowerneck 0.21721 3.33577 1.87036
upperneck 4.4967 4.389 -0.975119
head 1.41675 2.17424 -0.559648
rclavicle 2.78299e-014 4.69132e-014
rhumerus -40.887 -1.21102 -80.7979
rradius 38.716
rwrist -7.56691
rhand -23.5719 -11.7443
rfingers 7.12502
rthumb 2.89079 -41.7044
lclavicle 2.78299e-014 4.69132e-014
lhumerus 8.41728 -15.6173 44.1952
lradius 85.0246
lwrist 36.6295
lhand -26.7397 10.6593
lfingers 7.12502
lthumb -0.168706 40.639
rfemur -51.3737 -0.775012 8.4082
rtibia 36.5119
rfoot -24.3612 -14.8096
rtoes -13.4408
lfemur 1.66967 9.95229 -16.7509
ltibia 2.8625e-014
lfoot 1.71859 -4.59626
ltoes -18.8708
437
root 37.8775 16.6515 -0.277538 197.938 -33.553 -182.645
lowerback 13.2313 -1.98875 -2.67884
upperback 9.98017 -4.07092 -3.40659
thorax 3.03334 -2.55538 -1.66446
lowerneck -0.321032 3.34767 1.92608
upperneck 5.18282 4.39688 -1.15321
head 1.73621 2.17187 -0.610456
rclavicle -1.74931e-014 6.83819e-014
rhumerus -41.4844 -1.39623 -80.5561
rradius 37.6743
rwrist -6.60733
rhand -23.8078 -12.0256
rfingers 7.12502
rthumb 2.66303 -41.9887
lclavicle -1.74931e-014 6.83819e-014
lhumerus 8.6991 -16.145 44.0359
lradius 85.6156
lwrist 36.7972
lhand -26.174 10.599
lfingers 7.12502
lthumb 0.37766 40.5785
rfemur -49.9911 0.976221 6.48942
rtibia 33.6705
rfoot -25.1431 -15.8285
rtoes -12.7828
lfemur 2.76197 9.56127 -16.6179
ltibia 3.18055e-014
lfoot 1.56313 -4.50852
ltoes -19.0252
438
root 37.8254 16.6149 -0.475933 197.768 -33.6524 -183.015
lowerback 13.0005 -2.11457 -2.80909
upperback 9.82896 -4.21366 -3.44779
thorax 2.99918 -2.61977 -1.62561
lowerneck -0.885355 3.3695 1.98637
upperneck 5.89986 4.41892 -1.34152
head 2.07626 2.17438 -0.665258
rclavicle 1.27222e-014 -1.28812e-013
rhumerus -42.0578 -1.63545 -80.2762
rradius 36.6015
rwrist -5.67854
rhand -23.9118 -12.2151
rfingers 7.12502
rthumb 2.56258 -42.1794
lclavicle 1.27222e-014 -1.28812e-013
lhumerus 8.83379 -16.7157 43.9598
lradius 86.2173
lwrist 36.9656
lhand -25.6115 10.5486
lfingers 7.12502
lthumb 0.920951 40.5263
rfemur -48.7073 2.75706 4.6757
rtibia 31.2238
rfoot -25.9357 -16.7677
rtoes -12.1229
lfemur 3.87902 9.17025 -16.4541
ltibia -3.18055e-015
lfoot 1.40756 -4.45071
ltoes -19.1458
439
root 37.7728 16.5717 -0.677813 197.569 -33.7546 -183.356
lowerback 12.7589 -2.24263 -2.91383
upperback 9.67028 -4.35507 -3.48692
thorax 2.96207 -2.68155 -1.59978
lowerneck -1.48024 3.40358 2.03988
upperneck 6.64157 4.45777 -1.52176
head 2.43575 2.1831 -0.716225
rclavicle -7.95139e-016 -4.77083e-015
rhumerus -42.6023 -1.93184 -79.9579
rradius 35.5011
rwrist -4.77225
rhand -23.9246 -12.2954
rfingers 7.12502
rthumb 2.55015 -42.2599
lclavicle -7.95139e-016 -4.77083e-015
lhumerus 8.81534 -17.3479 43.9685
lradius 86.8534
lwrist 37.1986
lhand -25.1603 10.4832
lfingers 7.12502
lthumb 1.35672 40.4586
rfemur -47.5325 4.43506 3.08838
rtibia 29.2202
rfoot -26.6973 -17.5085
rtoes -11.4499
lfemur 5.02675 8.7755 -16.2534
ltibia 2.22639e-014
lfoot 1.26174 -4.42233
ltoes -19.2212
440
root 37.7203 16.5223 -0.882251 197.345 -33.8658 -183.664
lowerback 12.507 -2.37483 -2.9886
upperback 9.50484 -4.4972 -3.51832
thorax 2.92245 -2.74164 -1.58334
lowerneck -2.11794 3.45037 2.07763
upperneck 7.41061 4.51419 -1.68865
head 2.81836 2.19822 -0.759638
rclavicle -1.66979e-014 -2.38542e-014
rhumerus -43.1102 -2.29475 -79.5847
rradius 34.3866
rwrist -3.91154
rhand -23.8238 -12.2544
rfingers 7.12502
rthumb 2.64756 -42.2177
lclavicle -1.66979e-014 -2.38542e-014
lhumerus 8.64301 -18.037 44.0695
lradius 87.522
lwrist 37.4674
lhand -24.8685 10.3737
lfingers 7.12502
lthumb 1.63856 40.3471
rfemur -46.4673 5.8752 1.84022
rtibia 27.6786
rfoot -27.3281 -17.9848
rtoes -10.8344
lfemur 6.18953 8.37215 -16.0115
ltibia -2.22639e-014
lfoot 1.13344 -4.42362
ltoes -19.2956
441
root 37.6683 16.4674 -1.08909 197.111 -33.9916 -183.953
lowerback 12.2433 -2.5105 -3.04228
upperback 9.3338 -4.64038 -3.54511
thorax 2.88263 -2.80075 -1.57481
lowerneck -2.79834 3.50454 2.10411
upperneck 8.20055 4.58113 -1.84019
head 3.22287 2.21639 -0.795568
rclavicle -5.725e-014 -1.20066e-013
rhumerus -43.5827 -2.75687 -79.1423
rradius 33.2696
rwrist -3.11901
rhand -23.6029 -12.0823
rfingers 7.12502
rthumb 2.8609 -42.0429
lclavicle -5.725e-014 -1.20066e-013
lhumerus 8.32087 -18.7579 44.2702
lradius 88.2012
lwrist 37.6353
lhand -24.6266 10.2484
lfingers 7.12502
lthumb 1.87221 40.2199
rfemur -45.4765 6.93309 1.01422
rtibia 26.5902
rfoot -27.7119 -18.1111
rtoes -10.3841
lfemur 7.35674 7.95039 -15.74
ltibia 2.54444e-014
lfoot 1.03891 -4.45258
ltoes -19.3381
442
root 37.6172 16.408 -1.29806 196.856 -34.1314 -184.215
lowerback 11.9937 -2.64974 -3.07673
upperback 9.14914 -4.78594 -3.56029
thorax 2.8208 -2.85944 -1.56348
lowerneck -3.50541 3.566 2.1148
upperneck 9.00031 4.65929 -1.97901
head 3.64332 2.23779 -0.82407
rclavicle 3.33958e-014 3.81667e-014
rhumerus -44.0474 -3.25334 -78.6606
rradius 32.1806
rwrist -2.34523
rhand -23.3478 -11.8983
rfingers 7.12502
rthumb 3.10723 -41.8555
lclavicle 3.33958e-014 3.81667e-014
lhumerus 7.83631 -19.5107 44.579
lradius 88.8764
lwrist 37.708
lhand -24.4589 10.0701
lfingers 7.12502
lthumb 2.03413 40.0402
rfemur -44.5123 7.56016 0.643346
rtibia 25.9187
rfoot -27.7659 -17.8555
rtoes -10.0608
lfemur 8.52961 7.51174 -15.4302
ltibia 4.77083e-014
lfoot 0.993004 -4.50521
ltoes -19.3413
443
root 37.5679 16.3441 -1.50931 196.574 -34.2754 -184.444
lowerback 11.7696 -2.77722 -3.0921
upperback 8.95174 -4.91497 -3.56601
thorax 2.7316 -2.90851 -1.55231
lowerneck -4.21863 3.62207 2.13339
upperneck 9.78153 4.73141 -2.1122
head 4.0668 2.25493 -0.852707
rclavicle 7.95139e-014 -1.66979e-014
rhumerus -44.5139 -3.84225 -78.1221
rradius 31.1279
rwrist -1.6035
rhand -23.0399 -11.6765
rfingers 7.12502
rthumb 3.40453 -41.6291
lclavicle 7.95139e-014 -1.66979e-014
lhumerus 7.21837 -20.2897 44.9949
lradius 89.498
lwrist 37.5871
lhand -24.1974 9.77667
lfingers 7.12502
lthumb 2.28675 39.7442
rfemur -43.5378 7.78449 0.695851
rtibia 25.6171
rfoot -27.461 -17.2694
rtoes -10.0102
lfemur 9.71105 7.06553 -15.0762
ltibia 4.13472e-014
lfoot 1.01002 -4.57775
ltoes -19.2878
444
root 37.5192 16.2771 -1.72359 196.265 -34.4088 -184.645
lowerback 11.5663 -2.88786 -3.09336
upperback 8.74213 -5.02143 -3.56687
thorax 2.61812 -2.94528 -1.54405
lowerneck -4.91463 3.67399 2.17193
upperneck 10.5238 4.79936 -2.25189
head 4.48198 2.26928 -0.888211
rclavicle 2.46493e-014 1.19271e-014
rhumerus -45.0032 -4.47388 -77.5575
rradius 30.142
rwrist -0.889843
rhand -22.7525 -11.5225
rfingers 7.12502
rthumb 3.68215 -41.4704
lclavicle 2.46493e-014 1.19271e-014
lhumerus 6.46837 -21.1185 45.5183
lradius 90.0659
lwrist 37.4161
lhand -23.9607 9.42391
lfingers 7.12502
lthumb 2.51527 39.3888
rfemur -42.5328 7.71641 1.05166
rtibia 25.6201
rfoot -26.8581 -16.407
rtoes -10.0656
lfemur 10.9104 6.62287 -14.6939
ltibia -6.67916e-014
lfoot 1.09014 -4.66395
ltoes -19.2725
445
root 37.4706 16.2103 -1.94131 195.925 -34.525 -184.818
lowerback 11.379 -2.9812 -3.07802
upperback 8.52403 -5.10465 -3.56241
thorax 2.48655 -2.96959 -1.54006
lowerneck -5.50381 3.71983 2.20761
upperneck 11.5217 4.87913 -2.4756
head 4.46829 2.27596 -0.855908
rclavicle 3.65764e-014 -1.43125e-014
rhumerus -45.5073 -5.14136 -76.97
rradius 29.2212
rwrist -0.207935
rhand -22.4973 -11.4352
rfingers 7.12502
rthumb 3.92859 -41.3787
lclavicle 3.65764e-014 -1.43125e-014
lhumerus 5.59334 -21.9746 46.1626
lradius 90.5394
lwrist 37.2009
lhand -23.7316 9.02647
lfingers 7.12502
lthumb 2.73654 38.9887
rfemur -41.5146 7.547 1.54341
rtibia 25.8597
rfoot -26.022 -15.4483
rtoes -9.99429
lfemur 12.1304 6.1894 -14.292
ltibia 3.18055e-015
lfoot 1.24724 -4.75207
ltoes -19.3429
